<svg width="58" height="38" viewBox="0 0 58 38" fill="none" xmlns="http://www.w3.org/2000/svg">
<rect width="58" height="38" rx="19" fill="#F4F4F4"/>
<path d="M15.3809 22.5V15.0234H20.2524V15.9849H16.5088V18.2246H19.769V19.1807H16.5088V21.5386H20.4458V22.5H15.3809ZM21.1524 22.5V17.043H21.9366C21.9438 17.1432 21.9509 17.2489 21.9581 17.3599C21.9688 17.4673 21.9796 17.5658 21.9903 17.6553C22.0046 17.7448 22.0243 17.8092 22.0494 17.8486C22.0745 17.8844 22.1085 17.9023 22.1514 17.9023C22.1873 17.9023 22.2159 17.8934 22.2374 17.8755C22.2624 17.8576 22.2965 17.8182 22.3394 17.7573C22.5543 17.4637 22.8085 17.2435 23.1021 17.0967C23.3957 16.9463 23.7431 16.8711 24.1441 16.8711C24.5846 16.8711 24.9587 16.9606 25.2667 17.1396C25.5782 17.3151 25.8145 17.5747 25.9757 17.9185C26.1368 18.2586 26.2174 18.6704 26.2174 19.1538V22.5H25.1593V19.2935C25.1593 18.9748 25.1109 18.7044 25.0142 18.4824C24.9176 18.2604 24.7761 18.0921 24.5899 17.9775C24.4037 17.863 24.1799 17.8057 23.9185 17.8057C23.6464 17.8057 23.4047 17.8594 23.1934 17.9668C22.9822 18.0706 22.8013 18.2264 22.651 18.4341C22.4934 18.6561 22.3806 18.9157 22.3126 19.2129C22.2445 19.5101 22.2105 19.8413 22.2105 20.2065V22.5H21.1524ZM29.4645 22.5591C29.0599 22.5591 28.7269 22.4946 28.4655 22.3657C28.2041 22.2332 28.0072 22.0273 27.8747 21.748C27.7458 21.4688 27.6813 21.1071 27.6813 20.6631V17.9185H26.5963V17.043H27.214C27.411 17.043 27.5578 17.009 27.6545 16.9409C27.7547 16.8729 27.8227 16.7565 27.8586 16.5918C27.8836 16.4629 27.9105 16.2821 27.9391 16.0493C27.9678 15.8166 27.9875 15.6125 27.9982 15.437H28.7287V17.043H30.2648V17.9185H28.7287V20.5825C28.7287 20.8511 28.7609 21.0659 28.8254 21.2271C28.8898 21.3882 28.9919 21.5063 29.1315 21.5815C29.2712 21.6532 29.4591 21.689 29.6955 21.689C29.7993 21.689 29.9067 21.6818 30.0177 21.6675C30.1323 21.6496 30.2487 21.6281 30.3669 21.603V22.4409C30.2702 22.4731 30.1341 22.5 29.9587 22.5215C29.7832 22.5465 29.6185 22.5591 29.4645 22.5591ZM30.9661 22.5V17.043H31.7073C31.7108 17.1432 31.718 17.2471 31.7288 17.3545C31.7395 17.4583 31.7556 17.5407 31.7771 17.6016C31.795 17.6517 31.8129 17.6857 31.8308 17.7036C31.8523 17.7179 31.8791 17.7251 31.9114 17.7251C31.9364 17.7251 31.9561 17.7179 31.9704 17.7036C31.9884 17.6893 32.0116 17.6624 32.0403 17.623C32.1692 17.4154 32.3446 17.2542 32.5666 17.1396C32.7922 17.0251 33.0536 16.9678 33.3508 16.9678C33.5299 16.9678 33.6767 16.9803 33.7913 17.0054V17.9453C33.7053 17.9274 33.6158 17.9149 33.5227 17.9077C33.4332 17.897 33.3472 17.8916 33.2649 17.8916C33.0608 17.8916 32.8835 17.9202 32.7331 17.9775C32.5863 18.0312 32.461 18.11 32.3572 18.2139C32.2426 18.3356 32.1584 18.4932 32.1047 18.6865C32.051 18.8799 32.0242 19.1073 32.0242 19.3687V22.5H30.9661ZM35.9534 22.6719C35.556 22.6719 35.2033 22.6038 34.8953 22.4678C34.591 22.3281 34.3529 22.1258 34.181 21.8608C34.0091 21.5923 33.9232 21.2754 33.9232 20.9102C33.9232 20.5736 34.0037 20.2889 34.1649 20.0562C34.326 19.8198 34.5659 19.6354 34.8846 19.5029C35.2069 19.3704 35.6097 19.2899 36.0931 19.2612C36.5765 19.2326 36.9739 19.1968 37.2855 19.1538C37.6006 19.1108 37.8083 19.0625 37.9085 19.0088V19.7554C37.8011 19.8162 37.6131 19.8682 37.3446 19.9111C37.0796 19.9505 36.6946 19.9917 36.1898 20.0347C35.8997 20.0597 35.6652 20.1063 35.4862 20.1743C35.3107 20.2424 35.1818 20.3354 35.0994 20.4536C35.0171 20.5718 34.9759 20.7186 34.9759 20.894C34.9759 21.0981 35.0242 21.27 35.1209 21.4097C35.2212 21.5493 35.359 21.6549 35.5345 21.7266C35.7135 21.7982 35.923 21.834 36.1629 21.834C36.4709 21.834 36.7448 21.7713 36.9847 21.646C37.2246 21.5207 37.4126 21.3148 37.5487 21.0283C37.6238 20.8708 37.6793 20.6971 37.7152 20.5073C37.7545 20.3175 37.7742 20.0991 37.7742 19.8521V19.0947C37.7742 18.6507 37.6632 18.3141 37.4412 18.085C37.2228 17.8522 36.9077 17.7358 36.4959 17.7358C36.1414 17.7358 35.8478 17.8182 35.6151 17.9829C35.3859 18.1476 35.2337 18.375 35.1585 18.665H34.0897C34.1649 18.307 34.3099 17.9937 34.5247 17.7251C34.7396 17.453 35.0171 17.2435 35.3572 17.0967C35.6974 16.9463 36.0841 16.8711 36.5174 16.8711C37.2694 16.8711 37.8387 17.0698 38.2254 17.4673C38.6121 17.8612 38.8055 18.4305 38.8055 19.1753V22.5H38.0374C38.0338 22.4499 38.0303 22.4015 38.0267 22.355C38.0267 22.3049 38.0231 22.2565 38.0159 22.21C38.0088 22.1383 37.9998 22.0721 37.9891 22.0112C37.9819 21.9504 37.9712 21.9038 37.9569 21.8716C37.9425 21.8286 37.9264 21.7982 37.9085 21.7803C37.8906 21.7588 37.8638 21.748 37.8279 21.748C37.7921 21.748 37.7599 21.7606 37.7313 21.7856C37.7026 21.8071 37.665 21.8501 37.6185 21.9146C37.4394 22.1652 37.2121 22.355 36.9363 22.4839C36.6606 22.6092 36.333 22.6719 35.9534 22.6719ZM39.8881 22.5V17.043H40.6293C40.6329 17.1432 40.64 17.2471 40.6508 17.3545C40.6615 17.4583 40.6776 17.5407 40.6991 17.6016C40.717 17.6517 40.7349 17.6857 40.7528 17.7036C40.7743 17.7179 40.8012 17.7251 40.8334 17.7251C40.8585 17.7251 40.8782 17.7179 40.8925 17.7036C40.9104 17.6893 40.9337 17.6624 40.9623 17.623C41.0912 17.4154 41.2667 17.2542 41.4887 17.1396C41.7143 17.0251 41.9757 16.9678 42.2729 16.9678C42.4519 16.9678 42.5987 16.9803 42.7133 17.0054V17.9453C42.6273 17.9274 42.5378 17.9149 42.4447 17.9077C42.3552 17.897 42.2693 17.8916 42.1869 17.8916C41.9828 17.8916 41.8056 17.9202 41.6552 17.9775C41.5084 18.0312 41.383 18.11 41.2792 18.2139C41.1646 18.3356 41.0805 18.4932 41.0268 18.6865C40.973 18.8799 40.9462 19.1073 40.9462 19.3687V22.5H39.8881Z" fill="black"/>
</svg>
