<svg width="10" height="10" viewBox="0 0 10 10" fill="none" xmlns="http://www.w3.org/2000/svg">
<path d="M8.74211 3.61665C8.58506 3.45252 8.4226 3.28339 8.36137 3.13468C8.30471 2.99846 8.30138 2.77268 8.29805 2.55398C8.2918 2.14741 8.28513 1.68669 7.96479 1.36635C7.64445 1.046 7.18373 1.03934 6.77715 1.03309C6.55846 1.02976 6.33268 1.02643 6.19646 0.969772C6.04816 0.908536 5.87862 0.746074 5.71449 0.589028C5.42706 0.312843 5.10047 0 4.66557 0C4.23067 0 3.9045 0.312843 3.61665 0.589028C3.45252 0.746074 3.28339 0.908536 3.13468 0.969772C2.99929 1.02643 2.77268 1.02976 2.55398 1.03309C2.14741 1.03934 1.68669 1.046 1.36635 1.36635C1.046 1.68669 1.04142 2.14741 1.03309 2.55398C1.02976 2.77268 1.02643 2.99846 0.969772 3.13468C0.908536 3.28298 0.746074 3.45252 0.589028 3.61665C0.312843 3.90408 0 4.23067 0 4.66557C0 5.10047 0.312843 5.42664 0.589028 5.71449C0.746074 5.87862 0.908536 6.04774 0.969772 6.19646C1.02643 6.33268 1.02976 6.55846 1.03309 6.77715C1.03934 7.18373 1.046 7.64445 1.36635 7.96479C1.68669 8.28513 2.14741 8.2918 2.55398 8.29805C2.77268 8.30138 2.99846 8.30471 3.13468 8.36137C3.28298 8.4226 3.45252 8.58506 3.61665 8.74211C3.90408 9.01829 4.23067 9.33114 4.66557 9.33114C5.10047 9.33114 5.42664 9.01829 5.71449 8.74211C5.87862 8.58506 6.04774 8.4226 6.19646 8.36137C6.33268 8.30471 6.55846 8.30138 6.77715 8.29805C7.18373 8.2918 7.64445 8.28513 7.96479 7.96479C8.28513 7.64445 8.2918 7.18373 8.29805 6.77715C8.30138 6.55846 8.30471 6.33268 8.36137 6.19646C8.4226 6.04816 8.58506 5.87862 8.74211 5.71449C9.01829 5.42706 9.33114 5.10047 9.33114 4.66557C9.33114 4.23067 9.01829 3.9045 8.74211 3.61665ZM6.56762 3.90158L4.23484 6.23437C4.20389 6.26535 4.16713 6.28993 4.12668 6.3067C4.08622 6.32347 4.04285 6.33211 3.99906 6.33211C3.95526 6.33211 3.9119 6.32347 3.87144 6.3067C3.83099 6.28993 3.79423 6.26535 3.76328 6.23437L2.76352 5.2346C2.70098 5.17207 2.66585 5.08726 2.66585 4.99882C2.66585 4.91039 2.70098 4.82558 2.76352 4.76305C2.82605 4.70051 2.91086 4.66538 2.99929 4.66538C3.08773 4.66538 3.17254 4.70051 3.23507 4.76305L3.99906 5.52745L6.09607 3.43003C6.12703 3.39906 6.16379 3.3745 6.20424 3.35775C6.2447 3.34099 6.28805 3.33236 6.33184 3.33236C6.37563 3.33236 6.41899 3.34099 6.45945 3.35775C6.4999 3.3745 6.53666 3.39906 6.56762 3.43003C6.59858 3.46099 6.62314 3.49775 6.6399 3.5382C6.65666 3.57866 6.66528 3.62202 6.66528 3.6658C6.66528 3.70959 6.65666 3.75295 6.6399 3.79341C6.62314 3.83386 6.59858 3.87062 6.56762 3.90158Z" fill="white"/>
</svg>
