<svg width="63" height="17" viewBox="0 0 63 17" fill="none" xmlns="http://www.w3.org/2000/svg">
<path d="M15.264 4.194C15.264 5.214 14.904 6.096 14.184 6.84C13.464 7.572 12.414 8.1 11.034 8.424C11.778 8.628 12.342 8.964 12.726 9.432C13.11 9.888 13.302 10.416 13.302 11.016C13.302 11.964 13.002 12.786 12.402 13.482C11.814 14.178 10.95 14.718 9.81 15.102C8.67 15.474 7.296 15.66 5.688 15.66C5.088 15.66 4.608 15.642 4.248 15.606C4.236 15.942 4.092 16.194 3.816 16.362C3.54 16.53 3.186 16.614 2.754 16.614C2.322 16.614 2.022 16.518 1.854 16.326C1.698 16.134 1.632 15.852 1.656 15.48C1.764 13.8 1.974 12.042 2.286 10.206C2.598 8.358 2.994 6.576 3.474 4.86C3.558 4.56 3.726 4.35 3.978 4.23C4.23 4.11 4.56 4.05 4.968 4.05C5.7 4.05 6.066 4.254 6.066 4.662C6.066 4.83 6.03 5.022 5.958 5.238C5.646 6.174 5.334 7.446 5.022 9.054C4.71 10.65 4.488 12.174 4.356 13.626C4.932 13.674 5.4 13.698 5.76 13.698C7.44 13.698 8.67 13.458 9.45 12.978C10.242 12.486 10.638 11.862 10.638 11.106C10.638 10.578 10.41 10.134 9.954 9.774C9.51 9.414 8.76 9.216 7.704 9.18C7.464 9.168 7.296 9.108 7.2 9C7.104 8.892 7.056 8.718 7.056 8.478C7.056 8.13 7.128 7.848 7.272 7.632C7.416 7.416 7.68 7.302 8.064 7.29C8.916 7.266 9.684 7.14 10.368 6.912C11.064 6.684 11.61 6.366 12.006 5.958C12.402 5.538 12.6 5.052 12.6 4.5C12.6 3.804 12.258 3.258 11.574 2.862C10.89 2.454 9.84 2.25 8.424 2.25C7.14 2.25 5.898 2.418 4.698 2.754C3.498 3.078 2.478 3.492 1.638 3.996C1.254 4.224 0.929999 4.338 0.665999 4.338C0.449999 4.338 0.281999 4.266 0.161999 4.122C0.0539994 3.966 -5.84871e-07 3.774 -5.84871e-07 3.546C-5.84871e-07 3.246 0.0599994 2.988 0.179999 2.772C0.311999 2.556 0.617999 2.31 1.098 2.034C2.106 1.458 3.288 1.008 4.644 0.684004C6 0.360004 7.386 0.198004 8.802 0.198004C10.974 0.198004 12.594 0.564004 13.662 1.296C14.73 2.028 15.264 2.994 15.264 4.194ZM15.7791 15.804C15.3231 15.804 14.9991 15.564 14.8071 15.084C14.6271 14.604 14.5371 13.836 14.5371 12.78C14.5371 11.22 14.7591 9.738 15.2031 8.334C15.3111 7.986 15.4851 7.734 15.7251 7.578C15.9771 7.41 16.3251 7.326 16.7691 7.326C17.0091 7.326 17.1771 7.356 17.2731 7.416C17.3691 7.476 17.4171 7.59 17.4171 7.758C17.4171 7.95 17.3271 8.382 17.1471 9.054C17.0271 9.534 16.9311 9.954 16.8591 10.314C16.7871 10.674 16.7271 11.118 16.6791 11.646C17.0751 10.614 17.5191 9.774 18.0111 9.126C18.5031 8.478 18.9831 8.016 19.4511 7.74C19.9311 7.464 20.3691 7.326 20.7651 7.326C21.5451 7.326 21.9351 7.716 21.9351 8.496C21.9351 8.652 21.8811 9.03 21.7731 9.63C21.6771 10.11 21.6291 10.41 21.6291 10.53C21.6291 10.95 21.7791 11.16 22.0791 11.16C22.4151 11.16 22.8471 10.896 23.3751 10.368C23.5311 10.212 23.6931 10.134 23.8611 10.134C24.0171 10.134 24.1371 10.206 24.2211 10.35C24.3171 10.482 24.3651 10.662 24.3651 10.89C24.3651 11.334 24.2451 11.682 24.0051 11.934C23.6691 12.282 23.2731 12.582 22.8171 12.834C22.3731 13.074 21.8991 13.194 21.3951 13.194C20.7591 13.194 20.2731 13.032 19.9371 12.708C19.6131 12.384 19.4511 11.946 19.4511 11.394C19.4511 11.214 19.4691 11.034 19.5051 10.854C19.5291 10.614 19.5411 10.452 19.5411 10.368C19.5411 10.176 19.4751 10.08 19.3431 10.08C19.1631 10.08 18.9231 10.284 18.6231 10.692C18.3351 11.088 18.0471 11.616 17.7591 12.276C17.4711 12.936 17.2371 13.632 17.0571 14.364C16.9251 14.928 16.7691 15.312 16.5891 15.516C16.4211 15.708 16.1511 15.804 15.7791 15.804ZM31.3325 10.188C31.4885 10.188 31.6085 10.266 31.6925 10.422C31.7765 10.578 31.8185 10.776 31.8185 11.016C31.8185 11.592 31.6445 11.934 31.2965 12.042C30.5765 12.294 29.7845 12.438 28.9205 12.474C28.6925 13.482 28.2425 14.292 27.5705 14.904C26.8985 15.504 26.1365 15.804 25.2845 15.804C24.5645 15.804 23.9465 15.63 23.4305 15.282C22.9265 14.934 22.5425 14.472 22.2785 13.896C22.0145 13.32 21.8825 12.696 21.8825 12.024C21.8825 11.112 22.0565 10.302 22.4045 9.594C22.7525 8.874 23.2325 8.316 23.8445 7.92C24.4565 7.512 25.1345 7.308 25.8785 7.308C26.7905 7.308 27.5225 7.626 28.0745 8.262C28.6385 8.886 28.9685 9.66 29.0645 10.584C29.6285 10.548 30.3005 10.428 31.0805 10.224C31.1765 10.2 31.2605 10.188 31.3325 10.188ZM25.4285 13.896C25.8125 13.896 26.1425 13.74 26.4185 13.428C26.7065 13.116 26.8985 12.666 26.9945 12.078C26.6225 11.826 26.3345 11.496 26.1305 11.088C25.9385 10.68 25.8425 10.248 25.8425 9.792C25.8425 9.6 25.8605 9.408 25.8965 9.216H25.8065C25.3265 9.216 24.9245 9.45 24.6005 9.918C24.2885 10.374 24.1325 11.022 24.1325 11.862C24.1325 12.522 24.2585 13.026 24.5105 13.374C24.7745 13.722 25.0805 13.896 25.4285 13.896ZM38.2186 11.7C38.3746 11.7 38.4946 11.772 38.5786 11.916C38.6746 12.06 38.7226 12.258 38.7226 12.51C38.7226 12.99 38.6086 13.362 38.3806 13.626C37.8646 14.262 37.3006 14.784 36.6886 15.192C36.0766 15.6 35.3746 15.804 34.5826 15.804C32.1346 15.804 30.9106 14.082 30.9106 10.638C30.9106 10.11 30.9286 9.576 30.9646 9.036H30.2626C29.9026 9.036 29.6566 8.97 29.5246 8.838C29.4046 8.706 29.3446 8.496 29.3446 8.208C29.3446 7.536 29.6146 7.2 30.1546 7.2H31.1806C31.3846 5.88 31.6966 4.674 32.1166 3.582C32.5366 2.49 33.0406 1.62 33.6286 0.972003C34.2286 0.324004 34.8706 4.05312e-06 35.5546 4.05312e-06C36.0586 4.05312e-06 36.4546 0.222004 36.7426 0.666004C37.0306 1.11 37.1746 1.668 37.1746 2.34C37.1746 4.2 36.3946 5.82 34.8346 7.2H36.8506C37.0426 7.2 37.1806 7.242 37.2646 7.326C37.3486 7.41 37.3906 7.566 37.3906 7.794C37.3906 8.622 36.7126 9.036 35.3566 9.036H33.1606C33.1366 9.636 33.1246 10.104 33.1246 10.44C33.1246 11.688 33.2686 12.564 33.5566 13.068C33.8566 13.572 34.3246 13.824 34.9606 13.824C35.4766 13.824 35.9326 13.668 36.3286 13.356C36.7246 13.044 37.1926 12.576 37.7326 11.952C37.8766 11.784 38.0386 11.7 38.2186 11.7ZM35.0686 1.728C34.8886 1.728 34.6846 1.956 34.4566 2.412C34.2406 2.856 34.0306 3.48 33.8266 4.284C33.6346 5.076 33.4726 5.958 33.3406 6.93C34.0486 6.318 34.5766 5.634 34.9246 4.878C35.2846 4.11 35.4646 3.414 35.4646 2.79C35.4646 2.082 35.3326 1.728 35.0686 1.728ZM38.931 15.804C38.187 15.804 37.593 15.534 37.149 14.994C36.705 14.454 36.483 13.746 36.483 12.87C36.483 11.91 36.705 11.004 37.149 10.152C37.593 9.288 38.181 8.598 38.913 8.082C39.657 7.554 40.443 7.29 41.271 7.29C41.535 7.29 41.709 7.344 41.793 7.452C41.889 7.548 41.967 7.728 42.027 7.992C42.279 7.944 42.543 7.92 42.819 7.92C43.407 7.92 43.701 8.13 43.701 8.55C43.701 8.802 43.611 9.402 43.431 10.35C43.155 11.73 43.017 12.69 43.017 13.23C43.017 13.41 43.059 13.554 43.143 13.662C43.239 13.77 43.359 13.824 43.503 13.824C43.731 13.824 44.007 13.68 44.331 13.392C44.655 13.092 45.093 12.612 45.645 11.952C45.789 11.784 45.951 11.7 46.131 11.7C46.287 11.7 46.407 11.772 46.491 11.916C46.587 12.06 46.635 12.258 46.635 12.51C46.635 12.99 46.521 13.362 46.293 13.626C45.801 14.238 45.279 14.754 44.727 15.174C44.175 15.594 43.641 15.804 43.125 15.804C42.729 15.804 42.363 15.672 42.027 15.408C41.703 15.132 41.457 14.76 41.289 14.292C40.665 15.3 39.879 15.804 38.931 15.804ZM39.579 13.986C39.843 13.986 40.095 13.83 40.335 13.518C40.575 13.206 40.749 12.792 40.857 12.276L41.523 8.964C41.019 8.976 40.551 9.168 40.119 9.54C39.699 9.9 39.363 10.38 39.111 10.98C38.859 11.58 38.733 12.216 38.733 12.888C38.733 13.26 38.805 13.536 38.949 13.716C39.105 13.896 39.315 13.986 39.579 13.986ZM49.1681 15.804C48.3401 15.804 47.5901 15.6 46.9181 15.192C46.2581 14.784 45.7361 14.196 45.3521 13.428C44.9681 12.648 44.7761 11.73 44.7761 10.674C44.7761 8.85 45.1661 7.164 45.9461 5.616C46.7261 4.056 47.8781 2.808 49.4021 1.872C50.9261 0.924004 52.7561 0.450004 54.8921 0.450004C55.4441 0.450004 56.0321 0.492004 56.6561 0.576004C57.2921 0.660004 57.8681 0.786004 58.3841 0.954004C58.7201 1.05 58.8881 1.29 58.8881 1.674C58.8881 1.986 58.7681 2.28 58.5281 2.556C58.3001 2.832 58.0301 2.97 57.7181 2.97C57.6221 2.97 57.5501 2.964 57.5021 2.952C56.8781 2.808 56.3441 2.706 55.9001 2.646C55.4561 2.574 54.9881 2.538 54.4961 2.538C52.9721 2.538 51.6761 2.91 50.6081 3.654C49.5401 4.386 48.7421 5.358 48.2141 6.57C47.6861 7.782 47.4221 9.09 47.4221 10.494C47.4221 11.514 47.6201 12.306 48.0161 12.87C48.4241 13.422 48.9521 13.698 49.6001 13.698C50.3321 13.698 50.9741 13.398 51.5261 12.798C52.0781 12.198 52.5821 11.226 53.0381 9.882C53.4941 8.538 53.9441 6.714 54.3881 4.41C54.4601 4.074 54.6041 3.846 54.8201 3.726C55.0361 3.606 55.3241 3.546 55.6841 3.546C56.5361 3.546 56.9621 3.822 56.9621 4.374C56.9621 4.47 56.9441 4.59 56.9081 4.734C56.5961 5.898 56.3081 7.188 56.0441 8.604C55.7921 10.008 55.6661 11.076 55.6661 11.808C55.6661 12.456 55.7621 12.93 55.9541 13.23C56.1461 13.518 56.4401 13.662 56.8361 13.662C57.2201 13.662 57.5861 13.536 57.9341 13.284C58.2821 13.02 58.7201 12.576 59.2481 11.952C59.3921 11.784 59.5541 11.7 59.7341 11.7C59.8901 11.7 60.0101 11.772 60.0941 11.916C60.1901 12.06 60.2381 12.258 60.2381 12.51C60.2381 12.978 60.1241 13.35 59.8961 13.626C59.3081 14.334 58.7321 14.874 58.1681 15.246C57.6041 15.618 56.9141 15.804 56.0981 15.804C55.2581 15.804 54.5801 15.564 54.0641 15.084C53.5481 14.592 53.2241 13.902 53.0921 13.014C52.2041 14.874 50.8961 15.804 49.1681 15.804ZM60.7265 6.138C60.2225 6.138 59.8445 6.024 59.5925 5.796C59.3405 5.556 59.2145 5.226 59.2145 4.806C59.2145 4.386 59.3765 4.038 59.7005 3.762C60.0365 3.474 60.4505 3.33 60.9425 3.33C61.3865 3.33 61.7465 3.438 62.0225 3.654C62.2985 3.87 62.4365 4.176 62.4365 4.572C62.4365 5.052 62.2805 5.436 61.9685 5.724C61.6565 6 61.2425 6.138 60.7265 6.138ZM58.9985 15.804C58.6145 15.804 58.3505 15.726 58.2065 15.57C58.0625 15.414 57.9905 15.168 57.9905 14.832C57.9905 14.736 58.0025 14.568 58.0265 14.328C58.2185 12.132 58.5365 10.134 58.9805 8.334C59.0765 7.962 59.2325 7.704 59.4485 7.56C59.6765 7.404 60.0365 7.326 60.5285 7.326C61.0445 7.326 61.3025 7.536 61.3025 7.956C61.3025 8.016 61.2905 8.13 61.2665 8.298C60.7265 10.866 60.4025 13.02 60.2945 14.76C60.2705 15.144 60.1565 15.414 59.9525 15.57C59.7485 15.726 59.4305 15.804 58.9985 15.804Z" fill="black"/>
</svg>
