<svg width="133" height="38" viewBox="0 0 133 38" fill="none" xmlns="http://www.w3.org/2000/svg">
<rect width="133" height="38" rx="19" fill="black"/>
<path d="M17.8809 22.5V15.0234H21.0337C21.5457 15.0234 21.9844 15.104 22.3496 15.2651C22.7148 15.4227 22.9924 15.6536 23.1821 15.958C23.3755 16.2588 23.4722 16.6204 23.4722 17.043C23.4722 17.3867 23.4059 17.6911 23.2734 17.9561C23.1445 18.221 22.953 18.4377 22.6987 18.606C22.4481 18.7743 22.1401 18.8835 21.7749 18.9336L21.7373 18.8154C22.0811 18.8262 22.3514 18.8763 22.5483 18.9658C22.7453 19.0553 22.8939 19.1968 22.9941 19.3901C23.0944 19.5799 23.1714 19.8485 23.2251 20.1958C23.243 20.3175 23.2591 20.4393 23.2734 20.561C23.2878 20.6792 23.3039 20.7992 23.3218 20.9209C23.3361 21.057 23.3504 21.193 23.3647 21.3291C23.3826 21.4652 23.4023 21.5994 23.4238 21.7319C23.4489 21.9181 23.4847 22.0811 23.5312 22.2207C23.5814 22.3568 23.6333 22.4499 23.687 22.5H22.4946C22.4552 22.4642 22.4159 22.3908 22.3765 22.2798C22.3407 22.1652 22.312 22.0273 22.2905 21.8662C22.2762 21.7409 22.2619 21.6156 22.2476 21.4902C22.2332 21.3649 22.2189 21.2414 22.2046 21.1196C22.1903 20.9943 22.1759 20.8672 22.1616 20.7383C22.1473 20.6094 22.1312 20.484 22.1133 20.3623C22.0775 20.1188 22.0256 19.929 21.9575 19.793C21.8895 19.6533 21.7731 19.5477 21.6084 19.4761C21.4437 19.4009 21.2127 19.3633 20.9155 19.3633H19.0195V22.5H17.8809ZM20.8726 18.4556C21.3774 18.4556 21.748 18.3553 21.9844 18.1548C22.2207 17.9507 22.3389 17.6356 22.3389 17.2095C22.3389 16.9302 22.2869 16.6974 22.1831 16.5112C22.0793 16.3215 21.9199 16.18 21.7051 16.0869C21.4938 15.9938 21.2271 15.9473 20.9048 15.9473H19.0195V18.4556H20.8726ZM26.9127 22.6719C26.3505 22.6719 25.8528 22.5519 25.4195 22.312C24.9898 22.0685 24.6532 21.7266 24.4097 21.2861C24.1698 20.8457 24.0499 20.339 24.0499 19.7661C24.0499 19.1968 24.1752 18.6919 24.4259 18.2515C24.6801 17.811 25.0221 17.4709 25.4517 17.231C25.885 16.991 26.363 16.8711 26.8858 16.8711C27.4373 16.8711 27.9207 16.9875 28.336 17.2202C28.7514 17.4494 29.0719 17.7716 29.2974 18.187C29.523 18.5988 29.6358 19.0715 29.6358 19.605C29.6358 19.6551 29.634 19.7088 29.6304 19.7661C29.6304 19.8198 29.6287 19.8771 29.6251 19.938C29.6215 19.9738 29.6179 20.0096 29.6143 20.0454C29.6143 20.0812 29.6125 20.1117 29.609 20.1367H24.877V19.3096H28.7818L28.6046 19.3901C28.6046 19.0679 28.533 18.7814 28.3897 18.5308C28.2465 18.2801 28.0442 18.085 27.7828 17.9453C27.525 17.8057 27.2296 17.7358 26.8966 17.7358C26.56 17.7358 26.261 17.8092 25.9996 17.9561C25.7418 18.0993 25.5359 18.2998 25.3819 18.5576C25.2315 18.8154 25.1474 19.1144 25.1295 19.4546V19.9648C25.1295 20.3265 25.2029 20.6452 25.3497 20.9209C25.5001 21.1966 25.7096 21.4097 25.9781 21.5601C26.2467 21.7104 26.5582 21.7856 26.9127 21.7856C27.1741 21.7856 27.4122 21.748 27.627 21.6729C27.8455 21.5941 28.0281 21.4831 28.1749 21.3398C28.3217 21.193 28.4255 21.0229 28.4864 20.8296H29.5499C29.4604 21.2056 29.2939 21.5332 29.0504 21.8125C28.8105 22.0882 28.5061 22.3013 28.1373 22.4517C27.7685 22.5985 27.3603 22.6719 26.9127 22.6719ZM33.0441 24.9062C32.5428 24.9062 32.097 24.8203 31.7067 24.6484C31.3164 24.4766 30.9959 24.2384 30.7453 23.9341C30.4982 23.6297 30.3317 23.2806 30.2458 22.8867H31.3146C31.3791 23.123 31.4936 23.3254 31.6584 23.4937C31.8231 23.6655 32.0236 23.7962 32.2599 23.8857C32.4998 23.9788 32.7666 24.0254 33.0602 24.0254C33.4183 24.0254 33.7191 23.9627 33.9626 23.8374C34.2096 23.7157 34.3958 23.5348 34.5212 23.2949C34.6501 23.055 34.7145 22.7632 34.7145 22.4194V21.7642C34.7145 21.7176 34.7056 21.6818 34.6877 21.6567C34.6733 21.6317 34.6501 21.6191 34.6178 21.6191C34.5963 21.6191 34.5767 21.6263 34.5588 21.6406C34.5408 21.6514 34.5176 21.6729 34.4889 21.7051C34.2848 21.9271 34.0342 22.0972 33.737 22.2153C33.4398 22.3299 33.1139 22.3872 32.7594 22.3872C32.2438 22.3872 31.7783 22.2708 31.3629 22.0381C30.9512 21.8018 30.6289 21.4759 30.3962 21.0605C30.1634 20.6416 30.047 20.1725 30.047 19.6533C30.047 19.1162 30.1634 18.6364 30.3962 18.2139C30.6325 17.7913 30.953 17.4619 31.3576 17.2256C31.7658 16.9893 32.2152 16.8711 32.7057 16.8711C33.0924 16.8711 33.4362 16.9373 33.737 17.0698C34.0378 17.2023 34.3099 17.401 34.5534 17.666C34.6107 17.7269 34.6518 17.7663 34.6769 17.7842C34.7056 17.8021 34.736 17.811 34.7682 17.811C34.8076 17.811 34.838 17.7949 34.8595 17.7627C34.881 17.7305 34.8971 17.6768 34.9079 17.6016C34.9186 17.5192 34.9294 17.4261 34.9401 17.3223C34.9508 17.2148 34.958 17.1217 34.9616 17.043H35.7511V22.3979C35.7511 22.9172 35.6401 23.3647 35.4181 23.7407C35.1961 24.1167 34.881 24.4049 34.4728 24.6055C34.0682 24.806 33.592 24.9062 33.0441 24.9062ZM32.9421 21.5117C33.1963 21.5117 33.429 21.4705 33.6403 21.3882C33.8551 21.3058 34.0413 21.1877 34.1989 21.0337C34.3708 20.8654 34.5032 20.6631 34.5963 20.4268C34.693 20.1904 34.7414 19.9326 34.7414 19.6533C34.7414 19.374 34.693 19.1162 34.5963 18.8799C34.5032 18.64 34.3708 18.4359 34.1989 18.2676C34.0413 18.1136 33.8551 17.9954 33.6403 17.9131C33.429 17.8307 33.1963 17.7896 32.9421 17.7896C32.5911 17.7896 32.2778 17.8683 32.0021 18.0259C31.73 18.1834 31.5169 18.4036 31.3629 18.6865C31.2126 18.9694 31.1374 19.2917 31.1374 19.6533C31.1374 20.015 31.2126 20.3372 31.3629 20.6201C31.5169 20.8994 31.73 21.1178 32.0021 21.2754C32.2778 21.4329 32.5911 21.5117 32.9421 21.5117ZM36.9036 22.5V17.043H37.967V22.5H36.9036ZM37.4353 16.189C37.3028 16.189 37.1811 16.1603 37.0701 16.103C36.9626 16.0457 36.8785 15.967 36.8176 15.8667C36.7567 15.7629 36.7263 15.6465 36.7263 15.5176C36.7263 15.3887 36.7567 15.2741 36.8176 15.1738C36.8785 15.0736 36.9626 14.9948 37.0701 14.9375C37.1811 14.8766 37.3028 14.8462 37.4353 14.8462C37.5714 14.8462 37.6931 14.8766 37.8005 14.9375C37.9079 14.9948 37.9921 15.0736 38.053 15.1738C38.1138 15.2741 38.1443 15.3887 38.1443 15.5176C38.1443 15.6465 38.1138 15.7629 38.053 15.8667C37.9921 15.967 37.9079 16.0457 37.8005 16.103C37.6931 16.1603 37.5714 16.189 37.4353 16.189ZM41.096 22.6719C40.6305 22.6719 40.2259 22.6003 39.8821 22.457C39.5384 22.3138 39.2627 22.1097 39.055 21.8447C38.8509 21.5798 38.7184 21.2611 38.6575 20.8887H39.721C39.7532 21.082 39.8266 21.2485 39.9412 21.3882C40.0594 21.5278 40.2152 21.637 40.4085 21.7158C40.6055 21.791 40.8382 21.8286 41.1068 21.8286C41.3359 21.8286 41.5347 21.7982 41.7029 21.7373C41.8748 21.6729 42.0073 21.5833 42.1004 21.4688C42.1935 21.3542 42.2401 21.2199 42.2401 21.0659C42.2401 20.8976 42.2007 20.7598 42.1219 20.6523C42.0467 20.5449 41.916 20.4554 41.7298 20.3838C41.5436 20.3086 41.2786 20.2406 40.9349 20.1797C40.4443 20.0902 40.0522 19.9756 39.7586 19.8359C39.465 19.6927 39.2502 19.5119 39.1141 19.2935C38.978 19.0715 38.91 18.7975 38.91 18.4717C38.91 18.1566 38.9959 17.8791 39.1678 17.6392C39.3432 17.3957 39.5867 17.2077 39.8983 17.0752C40.2134 16.9391 40.575 16.8711 40.9832 16.8711C41.6242 16.8711 42.1291 17.0179 42.4979 17.3115C42.8667 17.6051 43.0869 18.0277 43.1585 18.5791H42.1326C42.0753 18.2783 41.9536 18.0581 41.7674 17.9185C41.5848 17.7752 41.3252 17.7036 40.9886 17.7036C40.7738 17.7036 40.5876 17.734 40.43 17.7949C40.276 17.8522 40.1561 17.9346 40.0701 18.042C39.9842 18.1458 39.9412 18.2712 39.9412 18.418C39.9412 18.5791 39.9788 18.7116 40.054 18.8154C40.1328 18.9157 40.2563 19.0016 40.4246 19.0732C40.5929 19.1413 40.8239 19.2021 41.1175 19.2559C41.6654 19.349 42.0932 19.4671 42.4012 19.6104C42.7091 19.7536 42.9311 19.9362 43.0672 20.1582C43.2033 20.3802 43.2713 20.6649 43.2713 21.0122C43.2713 21.3309 43.1782 21.6156 42.992 21.8662C42.8094 22.1169 42.5516 22.3138 42.2186 22.457C41.8891 22.6003 41.515 22.6719 41.096 22.6719ZM46.2821 22.5591C45.8775 22.5591 45.5445 22.4946 45.2831 22.3657C45.0217 22.2332 44.8248 22.0273 44.6923 21.748C44.5634 21.4688 44.4989 21.1071 44.4989 20.6631V17.9185H43.414V17.043H44.0316C44.2286 17.043 44.3754 17.009 44.4721 16.9409C44.5723 16.8729 44.6404 16.7565 44.6762 16.5918C44.7012 16.4629 44.7281 16.2821 44.7567 16.0493C44.7854 15.8166 44.8051 15.6125 44.8158 15.437H45.5463V17.043H47.0824V17.9185H45.5463V20.5825C45.5463 20.8511 45.5785 21.0659 45.643 21.2271C45.7074 21.3882 45.8095 21.5063 45.9491 21.5815C46.0888 21.6532 46.2768 21.689 46.5131 21.689C46.6169 21.689 46.7243 21.6818 46.8354 21.6675C46.9499 21.6496 47.0663 21.6281 47.1845 21.603V22.4409C47.0878 22.4731 46.9517 22.5 46.7763 22.5215C46.6008 22.5465 46.4361 22.5591 46.2821 22.5591ZM47.7837 22.5V17.043H48.5249C48.5285 17.1432 48.5356 17.2471 48.5464 17.3545C48.5571 17.4583 48.5732 17.5407 48.5947 17.6016C48.6126 17.6517 48.6305 17.6857 48.6484 17.7036C48.6699 17.7179 48.6968 17.7251 48.729 17.7251C48.754 17.7251 48.7737 17.7179 48.7881 17.7036C48.806 17.6893 48.8292 17.6624 48.8579 17.623C48.9868 17.4154 49.1623 17.2542 49.3843 17.1396C49.6098 17.0251 49.8712 16.9678 50.1684 16.9678C50.3475 16.9678 50.4943 16.9803 50.6089 17.0054V17.9453C50.5229 17.9274 50.4334 17.9149 50.3403 17.9077C50.2508 17.897 50.1649 17.8916 50.0825 17.8916C49.8784 17.8916 49.7012 17.9202 49.5508 17.9775C49.404 18.0312 49.2786 18.11 49.1748 18.2139C49.0602 18.3356 48.9761 18.4932 48.9223 18.6865C48.8686 18.8799 48.8418 19.1073 48.8418 19.3687V22.5H47.7837ZM53.5499 22.6719C52.9877 22.6719 52.49 22.5519 52.0567 22.312C51.627 22.0685 51.2904 21.7266 51.0469 21.2861C50.807 20.8457 50.6871 20.339 50.6871 19.7661C50.6871 19.1968 50.8124 18.6919 51.063 18.2515C51.3173 17.811 51.6592 17.4709 52.0889 17.231C52.5222 16.991 53.0002 16.8711 53.523 16.8711C54.0744 16.8711 54.5578 16.9875 54.9732 17.2202C55.3886 17.4494 55.709 17.7716 55.9346 18.187C56.1602 18.5988 56.273 19.0715 56.273 19.605C56.273 19.6551 56.2712 19.7088 56.2676 19.7661C56.2676 19.8198 56.2658 19.8771 56.2623 19.938C56.2587 19.9738 56.2551 20.0096 56.2515 20.0454C56.2515 20.0812 56.2497 20.1117 56.2462 20.1367H51.5142V19.3096H55.419L55.2418 19.3901C55.2418 19.0679 55.1701 18.7814 55.0269 18.5308C54.8837 18.2801 54.6814 18.085 54.42 17.9453C54.1622 17.8057 53.8668 17.7358 53.5337 17.7358C53.1972 17.7358 52.8982 17.8092 52.6368 17.9561C52.379 18.0993 52.1731 18.2998 52.0191 18.5576C51.8687 18.8154 51.7846 19.1144 51.7667 19.4546V19.9648C51.7667 20.3265 51.8401 20.6452 51.9869 20.9209C52.1373 21.1966 52.3467 21.4097 52.6153 21.5601C52.8838 21.7104 53.1954 21.7856 53.5499 21.7856C53.8113 21.7856 54.0494 21.748 54.2642 21.6729C54.4826 21.5941 54.6653 21.4831 54.8121 21.3398C54.9589 21.193 55.0627 21.0229 55.1236 20.8296H56.1871C56.0976 21.2056 55.931 21.5332 55.6876 21.8125C55.4476 22.0882 55.1433 22.3013 54.7745 22.4517C54.4057 22.5985 53.9975 22.6719 53.5499 22.6719ZM56.8722 20.2012V19.2666H60.5997V20.2012H56.8722ZM63.5407 22.6719C63.0752 22.6719 62.6706 22.6003 62.3269 22.457C61.9831 22.3138 61.7074 22.1097 61.4997 21.8447C61.2956 21.5798 61.1631 21.2611 61.1023 20.8887H62.1657C62.198 21.082 62.2714 21.2485 62.386 21.3882C62.5041 21.5278 62.6599 21.637 62.8532 21.7158C63.0502 21.791 63.2829 21.8286 63.5515 21.8286C63.7806 21.8286 63.9794 21.7982 64.1477 21.7373C64.3195 21.6729 64.452 21.5833 64.5451 21.4688C64.6382 21.3542 64.6848 21.2199 64.6848 21.0659C64.6848 20.8976 64.6454 20.7598 64.5666 20.6523C64.4914 20.5449 64.3607 20.4554 64.1745 20.3838C63.9883 20.3086 63.7234 20.2406 63.3796 20.1797C62.889 20.0902 62.497 19.9756 62.2033 19.8359C61.9097 19.6927 61.6949 19.5119 61.5588 19.2935C61.4227 19.0715 61.3547 18.7975 61.3547 18.4717C61.3547 18.1566 61.4406 17.8791 61.6125 17.6392C61.788 17.3957 62.0315 17.2077 62.343 17.0752C62.6581 16.9391 63.0197 16.8711 63.4279 16.8711C64.0689 16.8711 64.5738 17.0179 64.9426 17.3115C65.3114 17.6051 65.5316 18.0277 65.6032 18.5791H64.5774C64.5201 18.2783 64.3983 18.0581 64.2121 17.9185C64.0295 17.7752 63.7699 17.7036 63.4333 17.7036C63.2185 17.7036 63.0323 17.734 62.8747 17.7949C62.7208 17.8522 62.6008 17.9346 62.5149 18.042C62.4289 18.1458 62.386 18.2712 62.386 18.418C62.386 18.5791 62.4236 18.7116 62.4987 18.8154C62.5775 18.9157 62.7011 19.0016 62.8694 19.0732C63.0376 19.1413 63.2686 19.2021 63.5622 19.2559C64.1101 19.349 64.538 19.4671 64.8459 19.6104C65.1539 19.7536 65.3759 19.9362 65.5119 20.1582C65.648 20.3802 65.716 20.6649 65.716 21.0122C65.716 21.3309 65.6229 21.6156 65.4367 21.8662C65.2541 22.1169 64.9963 22.3138 64.6633 22.457C64.3339 22.6003 63.9597 22.6719 63.5407 22.6719ZM68.9739 22.6719C68.4118 22.6719 67.914 22.5519 67.4808 22.312C67.0511 22.0685 66.7145 21.7266 66.471 21.2861C66.2311 20.8457 66.1111 20.339 66.1111 19.7661C66.1111 19.1968 66.2365 18.6919 66.4871 18.2515C66.7413 17.811 67.0833 17.4709 67.513 17.231C67.9463 16.991 68.4243 16.8711 68.9471 16.8711C69.4985 16.8711 69.9819 16.9875 70.3973 17.2202C70.8126 17.4494 71.1331 17.7716 71.3587 18.187C71.5843 18.5988 71.6971 19.0715 71.6971 19.605C71.6971 19.6551 71.6953 19.7088 71.6917 19.7661C71.6917 19.8198 71.6899 19.8771 71.6863 19.938C71.6827 19.9738 71.6792 20.0096 71.6756 20.0454C71.6756 20.0812 71.6738 20.1117 71.6702 20.1367H66.9383V19.3096H70.8431L70.6658 19.3901C70.6658 19.0679 70.5942 18.7814 70.451 18.5308C70.3077 18.2801 70.1054 18.085 69.844 17.9453C69.5862 17.8057 69.2908 17.7358 68.9578 17.7358C68.6212 17.7358 68.3222 17.8092 68.0608 17.9561C67.803 18.0993 67.5971 18.2998 67.4432 18.5576C67.2928 18.8154 67.2086 19.1144 67.1907 19.4546V19.9648C67.1907 20.3265 67.2641 20.6452 67.4109 20.9209C67.5613 21.1966 67.7708 21.4097 68.0394 21.5601C68.3079 21.7104 68.6194 21.7856 68.9739 21.7856C69.2353 21.7856 69.4734 21.748 69.6883 21.6729C69.9067 21.5941 70.0893 21.4831 70.2361 21.3398C70.3829 21.193 70.4868 21.0229 70.5477 20.8296H71.6111C71.5216 21.2056 71.3551 21.5332 71.1116 21.8125C70.8717 22.0882 70.5674 22.3013 70.1985 22.4517C69.8297 22.5985 69.4215 22.6719 68.9739 22.6719ZM76.9345 22.6719C76.4117 22.6719 75.9409 22.5483 75.5219 22.3013C75.103 22.0506 74.7718 21.7051 74.5283 21.2646C74.2884 20.8206 74.1684 20.3229 74.1684 19.7715C74.1684 19.2236 74.2884 18.7295 74.5283 18.2891C74.7718 17.8451 75.1048 17.4977 75.5273 17.2471C75.9534 16.9964 76.4332 16.8711 76.9668 16.8711C77.3427 16.8711 77.6847 16.9373 77.9926 17.0698C78.3006 17.2023 78.5602 17.3849 78.7714 17.6177C78.8001 17.6463 78.8216 17.666 78.8359 17.6768C78.8502 17.6839 78.8681 17.6875 78.8896 17.6875C78.9254 17.6875 78.9505 17.675 78.9648 17.6499C78.9791 17.6213 78.9863 17.5801 78.9863 17.5264V14.7334H80.0498V22.5H79.2548C79.2513 22.4105 79.2441 22.312 79.2334 22.2046C79.2262 22.0972 79.2155 21.9951 79.2011 21.8984C79.1904 21.8161 79.1743 21.7606 79.1528 21.7319C79.1349 21.6997 79.1045 21.6836 79.0615 21.6836C79.0257 21.6836 78.9935 21.6943 78.9648 21.7158C78.9362 21.7373 78.8968 21.7767 78.8466 21.834C78.6211 22.1061 78.3489 22.3138 78.0302 22.457C77.7116 22.6003 77.3463 22.6719 76.9345 22.6719ZM77.1386 21.7588C77.4072 21.7588 77.6525 21.714 77.8745 21.6245C78.1001 21.535 78.297 21.4043 78.4653 21.2324C78.6443 21.0534 78.7822 20.8403 78.8789 20.5933C78.9755 20.3426 79.0239 20.0687 79.0239 19.7715C79.0239 19.4743 78.9755 19.2021 78.8789 18.9551C78.7822 18.7044 78.6443 18.4896 78.4653 18.3105C78.297 18.1423 78.1001 18.0133 77.8745 17.9238C77.6525 17.8307 77.4072 17.7842 77.1386 17.7842C76.777 17.7842 76.4529 17.8683 76.1665 18.0366C75.88 18.2049 75.6562 18.4395 75.4951 18.7402C75.3375 19.041 75.2588 19.3848 75.2588 19.7715C75.2588 20.1582 75.3375 20.5037 75.4951 20.8081C75.6562 21.1089 75.88 21.3434 76.1665 21.5117C76.4529 21.6764 76.777 21.7588 77.1386 21.7588ZM83.689 22.6719C83.1268 22.6719 82.6291 22.5519 82.1958 22.312C81.7662 22.0685 81.4296 21.7266 81.1861 21.2861C80.9462 20.8457 80.8262 20.339 80.8262 19.7661C80.8262 19.1968 80.9515 18.6919 81.2022 18.2515C81.4564 17.811 81.7984 17.4709 82.2281 17.231C82.6613 16.991 83.1394 16.8711 83.6621 16.8711C84.2136 16.8711 84.697 16.9875 85.1123 17.2202C85.5277 17.4494 85.8482 17.7716 86.0738 18.187C86.2994 18.5988 86.4121 19.0715 86.4121 19.605C86.4121 19.6551 86.4104 19.7088 86.4068 19.7661C86.4068 19.8198 86.405 19.8771 86.4014 19.938C86.3978 19.9738 86.3942 20.0096 86.3907 20.0454C86.3907 20.0812 86.3889 20.1117 86.3853 20.1367H81.6534V19.3096H85.5581L85.3809 19.3901C85.3809 19.0679 85.3093 18.7814 85.1661 18.5308C85.0228 18.2801 84.8205 18.085 84.5591 17.9453C84.3013 17.8057 84.0059 17.7358 83.6729 17.7358C83.3363 17.7358 83.0373 17.8092 82.7759 17.9561C82.5181 18.0993 82.3122 18.2998 82.1582 18.5576C82.0079 18.8154 81.9237 19.1144 81.9058 19.4546V19.9648C81.9058 20.3265 81.9792 20.6452 82.126 20.9209C82.2764 21.1966 82.4859 21.4097 82.7544 21.5601C83.023 21.7104 83.3345 21.7856 83.689 21.7856C83.9504 21.7856 84.1885 21.748 84.4034 21.6729C84.6218 21.5941 84.8044 21.4831 84.9512 21.3398C85.098 21.193 85.2019 21.0229 85.2627 20.8296H86.3262C86.2367 21.2056 86.0702 21.5332 85.8267 21.8125C85.5868 22.0882 85.2824 22.3013 84.9136 22.4517C84.5448 22.5985 84.1366 22.6719 83.689 22.6719ZM91.8967 24.9062C91.3954 24.9062 90.9496 24.8203 90.5593 24.6484C90.169 24.4766 89.8485 24.2384 89.5979 23.9341C89.3508 23.6297 89.1843 23.2806 89.0983 22.8867H90.1672C90.2316 23.123 90.3462 23.3254 90.5109 23.4937C90.6757 23.6655 90.8762 23.7962 91.1125 23.8857C91.3524 23.9788 91.6192 24.0254 91.9128 24.0254C92.2709 24.0254 92.5717 23.9627 92.8151 23.8374C93.0622 23.7157 93.2484 23.5348 93.3737 23.2949C93.5026 23.055 93.5671 22.7632 93.5671 22.4194V21.7642C93.5671 21.7176 93.5581 21.6818 93.5402 21.6567C93.5259 21.6317 93.5026 21.6191 93.4704 21.6191C93.4489 21.6191 93.4292 21.6263 93.4113 21.6406C93.3934 21.6514 93.3702 21.6729 93.3415 21.7051C93.1374 21.9271 92.8868 22.0972 92.5896 22.2153C92.2924 22.3299 91.9665 22.3872 91.612 22.3872C91.0964 22.3872 90.6309 22.2708 90.2155 22.0381C89.8037 21.8018 89.4815 21.4759 89.2487 21.0605C89.016 20.6416 88.8996 20.1725 88.8996 19.6533C88.8996 19.1162 89.016 18.6364 89.2487 18.2139C89.4851 17.7913 89.8055 17.4619 90.2102 17.2256C90.6184 16.9893 91.0677 16.8711 91.5583 16.8711C91.945 16.8711 92.2888 16.9373 92.5896 17.0698C92.8903 17.2023 93.1625 17.401 93.406 17.666C93.4633 17.7269 93.5044 17.7663 93.5295 17.7842C93.5581 17.8021 93.5886 17.811 93.6208 17.811C93.6602 17.811 93.6906 17.7949 93.7121 17.7627C93.7336 17.7305 93.7497 17.6768 93.7605 17.6016C93.7712 17.5192 93.7819 17.4261 93.7927 17.3223C93.8034 17.2148 93.8106 17.1217 93.8142 17.043H94.6037V22.3979C94.6037 22.9172 94.4927 23.3647 94.2707 23.7407C94.0487 24.1167 93.7336 24.4049 93.3254 24.6055C92.9208 24.806 92.4445 24.9062 91.8967 24.9062ZM91.7946 21.5117C92.0489 21.5117 92.2816 21.4705 92.4929 21.3882C92.7077 21.3058 92.8939 21.1877 93.0515 21.0337C93.2233 20.8654 93.3558 20.6631 93.4489 20.4268C93.5456 20.1904 93.5939 19.9326 93.5939 19.6533C93.5939 19.374 93.5456 19.1162 93.4489 18.8799C93.3558 18.64 93.2233 18.4359 93.0515 18.2676C92.8939 18.1136 92.7077 17.9954 92.4929 17.9131C92.2816 17.8307 92.0489 17.7896 91.7946 17.7896C91.4437 17.7896 91.1304 17.8683 90.8547 18.0259C90.5826 18.1834 90.3695 18.4036 90.2155 18.6865C90.0651 18.9694 89.9899 19.2917 89.9899 19.6533C89.9899 20.015 90.0651 20.3372 90.2155 20.6201C90.3695 20.8994 90.5826 21.1178 90.8547 21.2754C91.1304 21.4329 91.4437 21.5117 91.7946 21.5117ZM95.7454 22.5V17.043H96.4866C96.4902 17.1432 96.4973 17.2471 96.5081 17.3545C96.5188 17.4583 96.5349 17.5407 96.5564 17.6016C96.5743 17.6517 96.5922 17.6857 96.6101 17.7036C96.6316 17.7179 96.6585 17.7251 96.6907 17.7251C96.7158 17.7251 96.7355 17.7179 96.7498 17.7036C96.7677 17.6893 96.791 17.6624 96.8196 17.623C96.9485 17.4154 97.124 17.2542 97.346 17.1396C97.5716 17.0251 97.833 16.9678 98.1302 16.9678C98.3092 16.9678 98.456 16.9803 98.5706 17.0054V17.9453C98.4846 17.9274 98.3951 17.9149 98.302 17.9077C98.2125 17.897 98.1266 17.8916 98.0442 17.8916C97.8401 17.8916 97.6629 17.9202 97.5125 17.9775C97.3657 18.0312 97.2403 18.11 97.1365 18.2139C97.0219 18.3356 96.9378 18.4932 96.8841 18.6865C96.8304 18.8799 96.8035 19.1073 96.8035 19.3687V22.5H95.7454ZM100.733 22.6719C100.335 22.6719 99.9826 22.6038 99.6747 22.4678C99.3703 22.3281 99.1322 22.1258 98.9603 21.8608C98.7884 21.5923 98.7025 21.2754 98.7025 20.9102C98.7025 20.5736 98.7831 20.2889 98.9442 20.0562C99.1053 19.8198 99.3452 19.6354 99.6639 19.5029C99.9862 19.3704 100.389 19.2899 100.872 19.2612C101.356 19.2326 101.753 19.1968 102.065 19.1538C102.38 19.1108 102.588 19.0625 102.688 19.0088V19.7554C102.58 19.8162 102.392 19.8682 102.124 19.9111C101.859 19.9505 101.474 19.9917 100.969 20.0347C100.679 20.0597 100.445 20.1063 100.265 20.1743C100.09 20.2424 99.9611 20.3354 99.8788 20.4536C99.7964 20.5718 99.7552 20.7186 99.7552 20.894C99.7552 21.0981 99.8036 21.27 99.9003 21.4097C100.001 21.5493 100.138 21.6549 100.314 21.7266C100.493 21.7982 100.702 21.834 100.942 21.834C101.25 21.834 101.524 21.7713 101.764 21.646C102.004 21.5207 102.192 21.3148 102.328 21.0283C102.403 20.8708 102.459 20.6971 102.494 20.5073C102.534 20.3175 102.554 20.0991 102.554 19.8521V19.0947C102.554 18.6507 102.443 18.3141 102.221 18.085C102.002 17.8522 101.687 17.7358 101.275 17.7358C100.921 17.7358 100.627 17.8182 100.394 17.9829C100.165 18.1476 100.013 18.375 99.9379 18.665H98.869C98.9442 18.307 99.0892 17.9937 99.3041 17.7251C99.5189 17.453 99.7964 17.2435 100.137 17.0967C100.477 16.9463 100.863 16.8711 101.297 16.8711C102.049 16.8711 102.618 17.0698 103.005 17.4673C103.391 17.8612 103.585 18.4305 103.585 19.1753V22.5H102.817C102.813 22.4499 102.81 22.4015 102.806 22.355C102.806 22.3049 102.802 22.2565 102.795 22.21C102.788 22.1383 102.779 22.0721 102.768 22.0112C102.761 21.9504 102.751 21.9038 102.736 21.8716C102.722 21.8286 102.706 21.7982 102.688 21.7803C102.67 21.7588 102.643 21.748 102.607 21.748C102.571 21.748 102.539 21.7606 102.511 21.7856C102.482 21.8071 102.444 21.8501 102.398 21.9146C102.219 22.1652 101.991 22.355 101.716 22.4839C101.44 22.6092 101.112 22.6719 100.733 22.6719ZM107.213 22.6719C106.644 22.6719 106.137 22.5501 105.693 22.3066C105.253 22.0596 104.907 21.7158 104.657 21.2754C104.41 20.8314 104.286 20.3301 104.286 19.7715C104.286 19.2129 104.41 18.7134 104.657 18.2729C104.907 17.8289 105.253 17.4852 105.693 17.2417C106.137 16.9946 106.644 16.8711 107.213 16.8711C107.772 16.8711 108.252 16.9803 108.653 17.1987C109.054 17.4172 109.362 17.6982 109.577 18.042C109.795 18.3822 109.92 18.742 109.953 19.1216H108.905C108.852 18.8459 108.749 18.6095 108.599 18.4126C108.449 18.2121 108.255 18.0581 108.019 17.9507C107.786 17.8397 107.523 17.7842 107.229 17.7842C106.864 17.7842 106.54 17.8683 106.257 18.0366C105.974 18.2013 105.756 18.4359 105.602 18.7402C105.448 19.041 105.371 19.3848 105.371 19.7715C105.371 20.1582 105.448 20.5037 105.602 20.8081C105.756 21.1089 105.974 21.3434 106.257 21.5117C106.54 21.6764 106.864 21.7588 107.229 21.7588C107.523 21.7588 107.786 21.7051 108.019 21.5977C108.255 21.4867 108.449 21.3327 108.599 21.1357C108.749 20.9352 108.852 20.6971 108.905 20.4214H109.953C109.92 20.8009 109.795 21.1626 109.577 21.5063C109.362 21.8465 109.054 22.1258 108.653 22.3442C108.252 22.5627 107.772 22.6719 107.213 22.6719ZM107.299 24.9277C107.02 24.9277 106.778 24.8704 106.574 24.7559C106.37 24.6449 106.213 24.4891 106.102 24.2886C105.99 24.0881 105.935 23.8535 105.935 23.585H106.751C106.755 23.764 106.803 23.9072 106.896 24.0146C106.993 24.1257 107.124 24.1812 107.289 24.1812C107.432 24.1812 107.541 24.1418 107.616 24.063C107.691 23.9842 107.729 23.8714 107.729 23.7246C107.729 23.5241 107.65 23.3182 107.493 23.1069C107.335 22.8993 107.097 22.6969 106.778 22.5H107.702C107.978 22.6396 108.193 22.8223 108.347 23.0479C108.501 23.277 108.578 23.5277 108.578 23.7998C108.578 24.0146 108.524 24.2062 108.416 24.3745C108.313 24.5464 108.164 24.6807 107.971 24.7773C107.777 24.8776 107.553 24.9277 107.299 24.9277ZM112.33 22.6719C111.932 22.6719 111.579 22.6038 111.272 22.4678C110.967 22.3281 110.729 22.1258 110.557 21.8608C110.385 21.5923 110.299 21.2754 110.299 20.9102C110.299 20.5736 110.38 20.2889 110.541 20.0562C110.702 19.8198 110.942 19.6354 111.261 19.5029C111.583 19.3704 111.986 19.2899 112.469 19.2612C112.953 19.2326 113.35 19.1968 113.662 19.1538C113.977 19.1108 114.184 19.0625 114.285 19.0088V19.7554C114.177 19.8162 113.989 19.8682 113.721 19.9111C113.456 19.9505 113.071 19.9917 112.566 20.0347C112.276 20.0597 112.041 20.1063 111.862 20.1743C111.687 20.2424 111.558 20.3354 111.476 20.4536C111.393 20.5718 111.352 20.7186 111.352 20.894C111.352 21.0981 111.4 21.27 111.497 21.4097C111.597 21.5493 111.735 21.6549 111.911 21.7266C112.09 21.7982 112.299 21.834 112.539 21.834C112.847 21.834 113.121 21.7713 113.361 21.646C113.601 21.5207 113.789 21.3148 113.925 21.0283C114 20.8708 114.056 20.6971 114.091 20.5073C114.131 20.3175 114.15 20.0991 114.15 19.8521V19.0947C114.15 18.6507 114.039 18.3141 113.817 18.085C113.599 17.8522 113.284 17.7358 112.872 17.7358C112.518 17.7358 112.224 17.8182 111.991 17.9829C111.762 18.1476 111.61 18.375 111.535 18.665H110.466C110.541 18.307 110.686 17.9937 110.901 17.7251C111.116 17.453 111.393 17.2435 111.733 17.0967C112.074 16.9463 112.46 16.8711 112.894 16.8711C113.646 16.8711 114.215 17.0698 114.602 17.4673C114.988 17.8612 115.182 18.4305 115.182 19.1753V22.5H114.414C114.41 22.4499 114.406 22.4015 114.403 22.355C114.403 22.3049 114.399 22.2565 114.392 22.21C114.385 22.1383 114.376 22.0721 114.365 22.0112C114.358 21.9504 114.347 21.9038 114.333 21.8716C114.319 21.8286 114.303 21.7982 114.285 21.7803C114.267 21.7588 114.24 21.748 114.204 21.748C114.168 21.748 114.136 21.7606 114.107 21.7856C114.079 21.8071 114.041 21.8501 113.995 21.9146C113.816 22.1652 113.588 22.355 113.313 22.4839C113.037 22.6092 112.709 22.6719 112.33 22.6719Z" fill="white"/>
</svg>
